<?xml version="1.0" encoding="utf-8"?>
<!-- Generator: Adobe Illustrator 20.0.0, SVG Export Plug-In . SVG Version: 6.00 Build 0)  -->
<svg version="1.1" id="Layer_1" xmlns="http://www.w3.org/2000/svg" xmlns:xlink="http://www.w3.org/1999/xlink" x="0px" y="0px"
	 viewBox="0 0 200 200" style="enable-background:new 0 0 200 200;" xml:space="preserve">
<style type="text/css">
	.st0{fill:#B6E3F8;}
	.st1{fill:#716558;}
</style>
<g>
	<circle class="st0" cx="99.3" cy="99.7" r="71.9"/>
</g>
<g>
	<path class="st1" d="M121.7,107.1h31.5V86.7h-31.5c-5.6,0-10.2,4.6-10.2,10.2l0,0C111.5,102.5,116.1,107.1,121.7,107.1z"/>
	<path class="st1" d="M121.7,85h23.8V43.7c0-3.6-2.9-6.5-6.5-6.5H54.2c-4.9,0-8.9,4-8.9,8.9v107.3c0,4.9,4,8.9,8.9,8.9H139
		c3.6,0,6.5-2.9,6.5-6.5v-46.8h-23.8c-6.6,0-11.9-5.3-11.9-11.9C109.8,90.4,115.1,85,121.7,85z M91.7,57.1H58.2V51h33.5V57.1z"/>
</g>
</svg>
